<mxfile host="app.diagrams.net" agent="Mozilla/5.0 (Macintosh; Intel Mac OS X 10_15_7) AppleWebKit/537.36 (KHTML, like Gecko) Chrome/127.0.0.0 Safari/537.36" version="24.7.16">
  <diagram name="Page-1" id="5r-2aa9RLPGMNrtKq6ej">
    <mxGraphModel dx="2343" dy="1899" grid="1" gridSize="15" guides="1" tooltips="1" connect="1" arrows="1" fold="1" page="1" pageScale="1" pageWidth="850" pageHeight="1100" math="0" shadow="0">
      <root>
        <mxCell id="0" />
        <mxCell id="1" parent="0" />
        <mxCell id="C_9O1A6aKDhr1XXsWvwK-15" style="edgeStyle=orthogonalEdgeStyle;rounded=0;orthogonalLoop=1;jettySize=auto;html=1;exitX=0.55;exitY=0.95;exitDx=0;exitDy=0;exitPerimeter=0;" parent="1" source="C_9O1A6aKDhr1XXsWvwK-13" target="C_9O1A6aKDhr1XXsWvwK-1" edge="1">
          <mxGeometry relative="1" as="geometry" />
        </mxCell>
        <mxCell id="C_9O1A6aKDhr1XXsWvwK-16" style="edgeStyle=orthogonalEdgeStyle;rounded=0;orthogonalLoop=1;jettySize=auto;html=1;entryX=0.5;entryY=0;entryDx=0;entryDy=0;exitX=0.55;exitY=0.95;exitDx=0;exitDy=0;exitPerimeter=0;" parent="1" source="C_9O1A6aKDhr1XXsWvwK-13" target="C_9O1A6aKDhr1XXsWvwK-2" edge="1">
          <mxGeometry relative="1" as="geometry" />
        </mxCell>
        <mxCell id="C_9O1A6aKDhr1XXsWvwK-17" style="edgeStyle=orthogonalEdgeStyle;rounded=0;orthogonalLoop=1;jettySize=auto;html=1;entryX=0.5;entryY=0;entryDx=0;entryDy=0;exitX=0.55;exitY=0.95;exitDx=0;exitDy=0;exitPerimeter=0;" parent="1" source="C_9O1A6aKDhr1XXsWvwK-13" target="C_9O1A6aKDhr1XXsWvwK-3" edge="1">
          <mxGeometry relative="1" as="geometry">
            <mxPoint x="-165" y="225" as="sourcePoint" />
          </mxGeometry>
        </mxCell>
        <mxCell id="C_9O1A6aKDhr1XXsWvwK-18" style="edgeStyle=orthogonalEdgeStyle;rounded=0;orthogonalLoop=1;jettySize=auto;html=1;entryX=0.5;entryY=0;entryDx=0;entryDy=0;exitX=0.55;exitY=0.95;exitDx=0;exitDy=0;exitPerimeter=0;" parent="1" source="C_9O1A6aKDhr1XXsWvwK-13" target="C_9O1A6aKDhr1XXsWvwK-4" edge="1">
          <mxGeometry relative="1" as="geometry" />
        </mxCell>
        <mxCell id="C_9O1A6aKDhr1XXsWvwK-19" style="edgeStyle=orthogonalEdgeStyle;rounded=0;orthogonalLoop=1;jettySize=auto;html=1;entryX=0.5;entryY=0;entryDx=0;entryDy=0;exitX=0.55;exitY=0.95;exitDx=0;exitDy=0;exitPerimeter=0;" parent="1" source="C_9O1A6aKDhr1XXsWvwK-13" target="C_9O1A6aKDhr1XXsWvwK-5" edge="1">
          <mxGeometry relative="1" as="geometry">
            <mxPoint x="-228" y="208" as="sourcePoint" />
          </mxGeometry>
        </mxCell>
        <mxCell id="C_9O1A6aKDhr1XXsWvwK-13" value="NOAA BUOY DATA&lt;div&gt;https://www.ndbc.noaa.gov/data/realtime2/&lt;br&gt;&lt;/div&gt;" style="ellipse;shape=cloud;whiteSpace=wrap;html=1;" parent="1" vertex="1">
          <mxGeometry x="-423.75" y="72.5" width="397.5" height="140" as="geometry" />
        </mxCell>
        <mxCell id="C_9O1A6aKDhr1XXsWvwK-1" value="&lt;span style=&quot;font-family: system-ui, sans-serif; font-size: 16px; text-align: start; background-color: rgb(255, 255, 255);&quot;&gt;Standard Meteorological Data&lt;/span&gt;" style="rounded=0;whiteSpace=wrap;html=1;" parent="1" vertex="1">
          <mxGeometry x="-300" y="345" width="120" height="60" as="geometry" />
        </mxCell>
        <mxCell id="C_9O1A6aKDhr1XXsWvwK-2" value="&lt;span style=&quot;font-family: system-ui, sans-serif; font-size: 16px; text-align: start; background-color: rgb(255, 255, 255);&quot;&gt;Water Column Height (DART)&lt;/span&gt;" style="rounded=0;whiteSpace=wrap;html=1;" parent="1" vertex="1">
          <mxGeometry x="-105" y="345" width="120" height="60" as="geometry" />
        </mxCell>
        <mxCell id="C_9O1A6aKDhr1XXsWvwK-3" value="&lt;span style=&quot;font-family: system-ui, sans-serif; font-size: 16px; text-align: start; background-color: rgb(255, 255, 255);&quot;&gt;Solar Radiation Data&lt;/span&gt;" style="rounded=0;whiteSpace=wrap;html=1;" parent="1" vertex="1">
          <mxGeometry x="75" y="345" width="120" height="60" as="geometry" />
        </mxCell>
        <mxCell id="C_9O1A6aKDhr1XXsWvwK-4" value="&lt;span style=&quot;font-family: system-ui, sans-serif; font-size: 16px; text-align: start; background-color: rgb(255, 255, 255);&quot;&gt;Oceanographic Data&lt;/span&gt;" style="rounded=0;whiteSpace=wrap;html=1;" parent="1" vertex="1">
          <mxGeometry x="255" y="345" width="120" height="60" as="geometry" />
        </mxCell>
        <mxCell id="C_9O1A6aKDhr1XXsWvwK-5" value="&lt;span style=&quot;font-family: system-ui, sans-serif; font-size: 16px; text-align: start; background-color: rgb(255, 255, 255);&quot;&gt;Spectral Wave Summary Data&lt;/span&gt;" style="rounded=0;whiteSpace=wrap;html=1;" parent="1" vertex="1">
          <mxGeometry x="440" y="345" width="120" height="60" as="geometry" />
        </mxCell>
        <mxCell id="C_9O1A6aKDhr1XXsWvwK-6" value="&lt;span style=&quot;font-family: system-ui, sans-serif; font-size: 16px; text-align: start; background-color: rgb(255, 255, 255);&quot;&gt;Station Summary Data&amp;nbsp;&lt;/span&gt;" style="rounded=0;whiteSpace=wrap;html=1;" parent="1" vertex="1">
          <mxGeometry x="-545" y="60" width="120" height="60" as="geometry" />
        </mxCell>
        <mxCell id="C_9O1A6aKDhr1XXsWvwK-25" style="edgeStyle=orthogonalEdgeStyle;rounded=0;orthogonalLoop=1;jettySize=auto;html=1;entryX=0;entryY=0.5;entryDx=0;entryDy=0;fillColor=#f8cecc;strokeColor=#b85450;" parent="1" source="C_9O1A6aKDhr1XXsWvwK-8" target="C_9O1A6aKDhr1XXsWvwK-1" edge="1">
          <mxGeometry relative="1" as="geometry" />
        </mxCell>
        <mxCell id="C_9O1A6aKDhr1XXsWvwK-30" style="edgeStyle=orthogonalEdgeStyle;rounded=0;orthogonalLoop=1;jettySize=auto;html=1;entryX=0;entryY=1;entryDx=0;entryDy=0;fillColor=#f8cecc;strokeColor=#b85450;" parent="1" source="C_9O1A6aKDhr1XXsWvwK-8" target="C_9O1A6aKDhr1XXsWvwK-2" edge="1">
          <mxGeometry relative="1" as="geometry" />
        </mxCell>
        <mxCell id="C_9O1A6aKDhr1XXsWvwK-31" style="edgeStyle=orthogonalEdgeStyle;rounded=0;orthogonalLoop=1;jettySize=auto;html=1;entryX=0;entryY=1;entryDx=0;entryDy=0;fillColor=#f8cecc;strokeColor=#b85450;" parent="1" source="C_9O1A6aKDhr1XXsWvwK-8" target="C_9O1A6aKDhr1XXsWvwK-3" edge="1">
          <mxGeometry relative="1" as="geometry" />
        </mxCell>
        <mxCell id="C_9O1A6aKDhr1XXsWvwK-32" style="edgeStyle=orthogonalEdgeStyle;rounded=0;orthogonalLoop=1;jettySize=auto;html=1;entryX=0;entryY=1;entryDx=0;entryDy=0;fillColor=#f8cecc;strokeColor=#b85450;" parent="1" source="C_9O1A6aKDhr1XXsWvwK-8" target="C_9O1A6aKDhr1XXsWvwK-4" edge="1">
          <mxGeometry relative="1" as="geometry" />
        </mxCell>
        <mxCell id="C_9O1A6aKDhr1XXsWvwK-33" style="edgeStyle=orthogonalEdgeStyle;rounded=0;orthogonalLoop=1;jettySize=auto;html=1;entryX=0;entryY=1;entryDx=0;entryDy=0;fillColor=#f8cecc;strokeColor=#b85450;" parent="1" source="C_9O1A6aKDhr1XXsWvwK-8" target="C_9O1A6aKDhr1XXsWvwK-5" edge="1">
          <mxGeometry relative="1" as="geometry" />
        </mxCell>
        <mxCell id="C_9O1A6aKDhr1XXsWvwK-8" value="buoy:stations&lt;div&gt;Redis Set of Station IDs&lt;/div&gt;" style="shape=cylinder3;whiteSpace=wrap;html=1;boundedLbl=1;backgroundOutline=1;size=15;fillColor=#f8cecc;strokeColor=#b85450;" parent="1" vertex="1">
          <mxGeometry x="-487.5" y="390" width="93.75" height="90" as="geometry" />
        </mxCell>
        <mxCell id="C_9O1A6aKDhr1XXsWvwK-12" style="edgeStyle=orthogonalEdgeStyle;rounded=0;orthogonalLoop=1;jettySize=auto;html=1;entryX=0.5;entryY=0;entryDx=0;entryDy=0;entryPerimeter=0;" parent="1" source="C_9O1A6aKDhr1XXsWvwK-6" target="C_9O1A6aKDhr1XXsWvwK-8" edge="1">
          <mxGeometry relative="1" as="geometry" />
        </mxCell>
        <mxCell id="C_9O1A6aKDhr1XXsWvwK-21" style="edgeStyle=orthogonalEdgeStyle;rounded=0;orthogonalLoop=1;jettySize=auto;html=1;" parent="1" source="C_9O1A6aKDhr1XXsWvwK-20" target="C_9O1A6aKDhr1XXsWvwK-6" edge="1">
          <mxGeometry relative="1" as="geometry" />
        </mxCell>
        <mxCell id="C_9O1A6aKDhr1XXsWvwK-20" value="https://www.ndbc.noaa.gov/data/stations/station_table.txt" style="ellipse;shape=cloud;whiteSpace=wrap;html=1;" parent="1" vertex="1">
          <mxGeometry x="-780" y="-240" width="450" height="150" as="geometry" />
        </mxCell>
        <mxCell id="C_9O1A6aKDhr1XXsWvwK-22" value="DAILY UPDATE" style="text;html=1;align=center;verticalAlign=middle;whiteSpace=wrap;rounded=0;" parent="1" vertex="1">
          <mxGeometry x="-547.5" y="120" width="60" height="45" as="geometry" />
        </mxCell>
        <mxCell id="C_9O1A6aKDhr1XXsWvwK-23" value="buoy:&amp;lt;station id&amp;gt;:summary&lt;div&gt;Redis Hash of Summary Data&lt;/div&gt;" style="shape=cylinder3;whiteSpace=wrap;html=1;boundedLbl=1;backgroundOutline=1;size=15;fillColor=#f8cecc;strokeColor=#b85450;" parent="1" vertex="1">
          <mxGeometry x="-702" y="480" width="157" height="90" as="geometry" />
        </mxCell>
        <mxCell id="C_9O1A6aKDhr1XXsWvwK-24" style="edgeStyle=orthogonalEdgeStyle;rounded=0;orthogonalLoop=1;jettySize=auto;html=1;entryX=0.5;entryY=0;entryDx=0;entryDy=0;entryPerimeter=0;" parent="1" source="C_9O1A6aKDhr1XXsWvwK-6" target="C_9O1A6aKDhr1XXsWvwK-23" edge="1">
          <mxGeometry relative="1" as="geometry" />
        </mxCell>
      </root>
    </mxGraphModel>
  </diagram>
</mxfile>
